<svg width="445" height="565" viewBox="0 0 445 565" fill="none" xmlns="http://www.w3.org/2000/svg">
  <!-- background -->
  <rect width="445" height="565" fill="#f9fcfa"/>

  <!-- top-right soft shape -->
  <circle cx="440" cy="70" r="175" fill="#f3f9f7"/>

  <!-- bottom-left soft shape -->
  <circle cx="-25" cy="565" r="170" fill="#dcf5e5"/>

  <!-- dotted pattern -->
  <g fill="#DDF3EB">
    <!-- row 1 -->
    <circle cx="8" cy="135" r="2.6"/>
    <circle cx="28" cy="135" r="2.6"/>
    <circle cx="48" cy="135" r="2.6"/>
    <circle cx="68" cy="135" r="2.6"/>
    <circle cx="88" cy="135" r="2.6"/>

    <!-- row 2 -->
    <circle cx="8" cy="155" r="2.6"/>
    <circle cx="28" cy="155" r="2.6"/>
    <circle cx="48" cy="155" r="2.6"/>
    <circle cx="68" cy="155" r="2.6"/>
    <circle cx="88" cy="155" r="2.6"/>

    <!-- row 3 -->
    <circle cx="8" cy="175" r="2.6"/>
    <circle cx="28" cy="175" r="2.6"/>
    <circle cx="48" cy="175" r="2.6"/>
    <circle cx="68" cy="175" r="2.6"/>
    <circle cx="88" cy="175" r="2.6"/>

    <!-- row 4 -->
    <circle cx="8" cy="195" r="2.6"/>
    <circle cx="28" cy="195" r="2.6"/>
    <circle cx="48" cy="195" r="2.6"/>
    <circle cx="68" cy="195" r="2.6"/>
    <circle cx="88" cy="195" r="2.6"/>

    <!-- row 5 -->
    <circle cx="8" cy="215" r="2.6"/>
    <circle cx="28" cy="215" r="2.6"/>
    <circle cx="48" cy="215" r="2.6"/>
    <circle cx="68" cy="215" r="2.6"/>
    <circle cx="88" cy="215" r="2.6"/>
  </g>
</svg>